<?xml version="1.0" encoding="UTF-8" standalone="no"?>
<!-- Created with Inkscape (http://www.inkscape.org/) -->

<svg
   width="512"
   height="512"
   viewBox="0 0 512 512"
   version="1.1"
   id="svg1"
   inkscape:version="1.3.2 (091e20e, 2023-11-25, custom)"
   sodipodi:docname="drawing.svg"
   xmlns:inkscape="http://www.inkscape.org/namespaces/inkscape"
   xmlns:sodipodi="http://sodipodi.sourceforge.net/DTD/sodipodi-0.dtd"
   xmlns="http://www.w3.org/2000/svg"
   xmlns:svg="http://www.w3.org/2000/svg">
  <sodipodi:namedview
     id="namedview1"
     pagecolor="#ffffff"
     bordercolor="#000000"
     borderopacity="0.25"
     inkscape:showpageshadow="2"
     inkscape:pageopacity="0.0"
     inkscape:pagecheckerboard="0"
     inkscape:deskcolor="#d1d1d1"
     inkscape:document-units="px"
     inkscape:zoom="1.7246094"
     inkscape:cx="256.28992"
     inkscape:cy="256.57984"
     inkscape:window-width="1920"
     inkscape:window-height="1121"
     inkscape:window-x="-7"
     inkscape:window-y="-7"
     inkscape:window-maximized="1"
     inkscape:current-layer="layer1" />
  <defs
     id="defs1" />
  <g
     inkscape:label="Layer 1"
     inkscape:groupmode="layer"
     id="layer1">
    <circle
       style="fill:#000000;stroke:#000000;stroke-width:0.755906"
       id="path1"
       cx="256.37796"
       cy="256.37796"
       r="256" />
    <path
       style="fill:none;stroke:#000000;stroke-width:0.755906"
       d="m 262.08834,88.715742 c -0.77313,0 -1.56933,-0.18751 -2.31937,0 -1.67714,0.419284 -2.99869,1.772686 -4.63873,2.319366 -0.93497,0.311655 -1.99861,0.179575 -2.89921,0.579841 -1.76622,0.784986 -3.04602,2.384059 -4.63873,3.479049 -2.29704,1.579216 -4.65496,3.068413 -6.9581,4.638731 -1.94931,1.329071 -3.86561,2.705931 -5.79841,4.058891 -2.51265,1.54624 -5.08314,3.0022 -7.53794,4.63873 -0.45487,0.30324 -0.68503,0.88845 -1.15968,1.15968 -0.90371,0.51641 -2.00669,0.62418 -2.89921,1.15969 -11.6867,7.01202 4.95679,-1.54005 -5.79842,3.47905 -3.71241,1.73245 -7.42684,3.80389 -11.01698,5.79841 -2.40017,1.33342 -2.22977,2.00256 -5.21858,2.89921 -10.1129,3.03387 5.79992,-2.75487 -6.37825,2.31936 -2.81277,1.17199 -6.09444,1.59762 -8.69762,2.89921 -2.09237,1.04618 -5.80383,1.16509 -7.53794,2.89921 -0.49277,0.49277 -0.84803,1.11621 -1.15969,1.73952 -0.60246,1.20492 -0.33299,3.40448 -0.57984,4.63873 -0.0536,0.26804 -0.51354,0.31467 -0.57984,0.57985 -0.19347,0.77388 -0.54781,7.56996 0,8.11778 0.8668,0.86679 -0.0657,-1.78332 1.73953,-0.57985 4.95416,3.30278 9.56093,7.10595 14.49603,10.43715 5.74268,3.87631 12.23885,6.55131 17.97509,10.43715 3.07389,2.08231 5.64499,4.84473 8.69762,6.95809 2.6838,1.85802 20.68671,13.00709 24.93318,15.07588 14.94083,7.27887 32.07486,9.98987 47.547,15.65572 18.11177,6.63248 20.35471,10.2581 38.26953,20.87429 27.64695,14.63662 0.55656,-0.12994 13.33636,7.53794 0.74119,0.44472 1.62786,0.64106 2.31936,1.15968 0.30925,0.23194 -0.17287,0.81394 0,1.15969 0.19328,0.38656 0.27424,0.85408 0.57985,1.15968 0.13667,0.13667 0.66627,-0.17288 0.57984,0 -1.62402,3.24803 -6.49429,3.26861 -9.85731,4.63873 -7.54546,3.07408 -15.06006,6.22382 -22.61381,9.27746 -5.90202,2.38593 -12.28656,3.6358 -18.55493,4.63874 -11.59683,1.73952 -23.19366,3.47905 -34.79049,5.21857 -3.47905,0.19328 -6.98468,0.10905 -10.43714,0.57984 -5.07045,0.69143 -10.0382,1.99962 -15.07588,2.89921 -0.67811,0.12109 -2.25091,-0.32415 -2.89921,0 -0.84091,0.42045 -1.21247,1.15968 -2.31936,1.15968"
       id="path2" />
    <path
       style="fill:#ffffff;stroke:#000000;stroke-width:0.755906"
       d="m 126.40544,153.07814 103.21177,-1.15968 19.71461,-83.497169 19.71461,80.018119 99.15289,0.57984 70.74066,60.88335 -30.7316,70.74066 -87.55606,35.95017 48.70668,73.63987 -95.67384,48.12684 -24.93318,-117.70782 -73.1506,91.03511 L 145.5402,301.51755 49.286523,269.04643 30.151755,197.14609 168.73386,230.19706 Z"
       id="path3" />
    <text
       xml:space="preserve"
       style="font-size:53.3333px;font-family:Arial;-inkscape-font-specification:Arial;white-space:pre;inline-size:86.0587;fill:#000000;fill-opacity:0;stroke:#000000;stroke-width:0.755906"
       x="202.36467"
       y="242.37373"
       id="text3" />
    <text
       xml:space="preserve"
       style="font-size:53.3333px;font-family:Arial;-inkscape-font-specification:Arial;white-space:pre;inline-size:0;fill:#1a1a1a;fill-opacity:0;stroke:#000000;stroke-width:0.329815"
       x="231.35674"
       y="249.33182"
       id="text4"
       transform="matrix(2.7560582,0,0,1.9059297,-423.8151,-185.20303)"><tspan
         id="tspan4"
         x="231.35674"
         y="249.33182"
         style="fill:#1a1a1a;stroke-width:0.329815">F</tspan></text>
  </g>
</svg>
